<?xml version="1.0" encoding="utf-8"?>
<svg viewBox="0 0 320 512" xmlns="http://www.w3.org/2000/svg">
  <path d="M27.66 224h264.7c24.6 0 36.89-29.78 19.54-47.12l-132.3-136.8c-5.406-5.406-12.47-8.107-19.53-8.107c-7.055 0-14.09 2.701-19.45 8.107L8.119 176.9C-9.229 194.2 3.055 224 27.66 224zM292.3 288H27.66c-24.6 0-36.89 29.77-19.54 47.12l132.5 136.8C145.9 477.3 152.1 480 160 480c7.053 0 14.12-2.703 19.53-8.109l132.3-136.8C329.2 317.8 316.9 288 292.3 288z" style="fill: rgba(145, 48, 48, 0.11);"/>
  <path d="M 27.368 223.847 L 292.068 223.847 C 316.668 223.847 328.958 194.067 311.608 176.727 L 179.308 39.927 C 173.902 34.521 166.838 31.82 159.778 31.82 C 152.723 31.82 145.688 34.521 140.328 39.927 L 7.827 176.747 C -9.521 194.047 2.763 223.847 27.368 223.847 Z" style="fill: rgb(145, 48, 48);"/>
</svg>